<svg data-v-d3f97b9e="" xmlns="http://www.w3.org/2000/svg" viewBox="0 0 194.05272838749232 60"><!----><!----><linearGradient data-v-d3f97b9e="" gradientTransform="rotate(25)" id="70e33ffb-023c-40e5-9c16-c351aea15324" x1="0%" y1="0%" x2="100%" y2="0%"><stop data-v-d3f97b9e="" offset="0%" style="stop-color: rgb(54, 22, 172); stop-opacity: 1;"></stop><stop data-v-d3f97b9e="" offset="100%" style="stop-color: rgb(224, 155, 237); stop-opacity: 1;"></stop></linearGradient><g data-v-d3f97b9e="" id="e0c3bd39-6978-4da5-9ca3-0e7b9ee9b898" fill="url(#70e33ffb-023c-40e5-9c16-c351aea15324)" transform="matrix(4.708767414093018,0,0,4.708767414093018,-1.2691526412963867,-3.292457103729248)"><path d="M0.27 0.98L2.09 10.50L5.01 10.50L6.51 3.26L8.01 10.50L10.93 10.50L12.75 0.98L10.72 0.98L9.55 8.85L9.34 8.85L7.63 0.98L5.39 0.98L3.68 8.85L3.47 8.85L2.30 0.98ZM19.04 5.68C19.04 4.05 18.31 3.33 16.49 3.33C15.15 3.33 13.65 3.74 13.65 3.74L13.71 5.04C13.71 5.04 15.41 4.93 16.34 4.93C16.90 4.93 17.16 5.08 17.16 5.68L17.16 6.12L15.67 6.23C14.13 6.34 13.22 6.79 13.22 8.37C13.22 9.86 13.92 10.67 15.39 10.67C16.44 10.67 17.44 10.18 17.44 10.18C18.03 10.57 18.51 10.67 19.45 10.67L19.50 9.25C19.12 9.18 19.07 9.02 19.04 8.60ZM17.16 7.42L17.16 8.92C17.16 8.92 16.39 9.14 15.79 9.14C15.29 9.14 15.11 8.81 15.11 8.32C15.11 7.81 15.40 7.57 15.89 7.53ZM20.83 13.44L22.71 13.44L22.71 10.56C22.71 10.56 23.35 10.67 23.87 10.67C26.01 10.67 27.05 9.93 27.05 6.94C27.05 4.34 26.14 3.33 24.29 3.33C23.60 3.33 22.69 3.88 22.69 3.88L22.69 3.50L20.83 3.50ZM23.93 5.01C24.67 5.01 25.14 5.53 25.14 6.94C25.14 8.43 24.85 9.04 23.73 9.04C23.34 9.04 22.71 8.96 22.71 8.96L22.71 5.29C22.71 5.29 23.35 5.01 23.93 5.01ZM30.32 10.50L30.32 7.90L31.09 7.77L32.51 10.50L34.62 10.50L32.70 6.82L34.52 3.50L32.42 3.50L31.04 6.15L30.32 6.27L30.32 0.70L28.45 0.70L28.45 10.50ZM41.02 5.68C41.02 4.05 40.29 3.33 38.47 3.33C37.13 3.33 35.63 3.74 35.63 3.74L35.69 5.04C35.69 5.04 37.39 4.93 38.32 4.93C38.88 4.93 39.14 5.08 39.14 5.68L39.14 6.12L37.65 6.23C36.11 6.34 35.20 6.79 35.20 8.37C35.20 9.86 35.90 10.67 37.37 10.67C38.42 10.67 39.42 10.18 39.42 10.18C40.01 10.57 40.49 10.67 41.43 10.67L41.48 9.25C41.10 9.18 41.05 9.02 41.02 8.60ZM39.14 7.42L39.14 8.92C39.14 8.92 38.37 9.14 37.77 9.14C37.27 9.14 37.09 8.81 37.09 8.32C37.09 7.81 37.38 7.57 37.87 7.53Z"></path></g><!----><!----></svg>