<svg data-v-d3f97b9e="" xmlns="http://www.w3.org/2000/svg" viewBox="0 0 218.29136690647482 60"><!----><!----><!----><g data-v-d3f97b9e="" id="adbf0e06-65b4-4e3a-a1c7-a86b3fa36e61" fill="black" transform="matrix(4.604316711425781,0,0,4.604316711425781,-1.6546803712844849,-15.14388656616211)"><path d="M14.41 3.92L11.83 3.92L10.43 11.65L9.21 4.06L5.60 4.06L4.33 11.62L3.04 3.92L0.36 3.92L2.69 13.58L6.06 13.58L7.36 6.06L8.58 13.58L11.94 13.58ZM19.07 13.58L21.53 13.58C21.42 12.75 21.39 12.25 21.39 11.69L21.39 9.59C21.39 9.13 21.38 8.69 21.35 8.32C21.24 6.96 20.43 5.91 18.06 5.91C16.17 5.91 14.62 6.90 14.60 8.65L16.98 8.64C17.02 7.99 17.36 7.62 17.95 7.62C18.49 7.62 18.80 7.95 18.84 8.33C18.87 8.57 18.87 8.72 18.87 8.88L18.87 8.99L18.40 8.99C15.86 8.99 14.35 9.97 14.35 11.56C14.35 13.01 15.51 13.78 16.74 13.78C17.43 13.78 18.06 13.61 18.59 13.27L18.90 12.49ZM17.78 12.07C17.28 12.07 16.93 11.82 16.93 11.37C16.93 10.63 17.74 10.33 18.87 10.42L18.87 10.91C18.87 11.69 18.28 12.07 17.78 12.07ZM27.89 5.91C27.13 5.91 26.40 6.06 25.98 6.37L25.42 7.20L25.42 6.10L22.90 6.10L22.90 16.32L25.42 16.32L25.42 12.61L25.91 13.41C26.29 13.64 27.02 13.78 27.64 13.78C29.55 13.78 31.18 12.33 31.18 9.67C31.18 7.46 29.92 5.91 27.89 5.91ZM26.95 12.07C26.19 12.07 25.42 11.56 25.42 10.07L25.42 9.74C25.42 8.18 26.10 7.62 27.02 7.62C27.90 7.62 28.60 8.40 28.60 9.80C28.60 11.33 27.93 12.07 26.95 12.07ZM35.32 10.81L37.32 13.58L40.42 13.58L37.21 9.53L40.38 6.10L37.42 6.10L34.79 9.24L34.79 3.29L32.27 3.29L32.27 13.58L34.79 13.58L34.79 11.40ZM45.30 13.58L47.77 13.58C47.66 12.75 47.63 12.25 47.63 11.69L47.63 9.59C47.63 9.13 47.61 8.69 47.59 8.32C47.47 6.96 46.66 5.91 44.30 5.91C42.41 5.91 40.85 6.90 40.84 8.65L43.22 8.64C43.26 7.99 43.60 7.62 44.18 7.62C44.73 7.62 45.04 7.95 45.08 8.33C45.11 8.57 45.11 8.72 45.11 8.88L45.11 8.99L44.63 8.99C42.10 8.99 40.59 9.97 40.59 11.56C40.59 13.01 41.75 13.78 42.98 13.78C43.67 13.78 44.30 13.61 44.83 13.27L45.14 12.49ZM44.02 12.07C43.51 12.07 43.16 11.82 43.16 11.37C43.16 10.63 43.97 10.33 45.11 10.42L45.11 10.91C45.11 11.69 44.52 12.07 44.02 12.07Z"></path></g><!----><!----></svg>