<svg data-v-423bf9ae="" xmlns="http://www.w3.org/2000/svg" viewBox="0 0 95.74245939675174 60" class="font"><!----><!----><!----><g data-v-423bf9ae="" id="40ad1224-eb02-4abe-a216-4c5eb56d43ee" fill="black" transform="matrix(4.454756259918213,0,0,4.454756259918213,-0.8004613518714905,-14.216936111450195)"><path d="M4.70 14.71L3.54 14.71L2.90 8.25L2.17 14.71L1.02 14.71L0.18 6.05L1.09 6.05L1.64 12.85L2.44 6.05L3.37 6.05L4.09 12.85L4.75 6.05L5.66 6.05L4.70 14.71ZM9.25 14.71L8.37 14.71L8.37 14.71Q8.32 14.53 8.32 14.20L8.32 14.20L8.32 14.20Q7.97 14.84 7.28 14.84L7.28 14.84L7.28 14.84Q6.69 14.84 6.36 14.52L6.36 14.52L6.36 14.52Q6.03 14.20 6.03 13.47L6.03 13.47L6.03 12.19L6.03 12.19Q6.03 11.56 6.21 11.14L6.21 11.14L6.21 11.14Q6.38 10.71 6.69 10.42L6.69 10.42L6.69 10.42Q6.99 10.12 7.39 9.92L7.39 9.92L7.39 9.92Q7.80 9.72 8.26 9.52L8.26 9.52L8.26 7.63L8.26 7.63Q8.26 7.27 8.13 7.07L8.13 7.07L8.13 7.07Q7.99 6.87 7.63 6.87L7.63 6.87L7.63 6.87Q7.25 6.87 7.13 7.07L7.13 7.07L7.13 7.07Q7.00 7.27 7.00 7.63L7.00 7.63L7.00 9.45L6.15 9.45L6.15 7.62L6.15 7.62Q6.15 6.76 6.50 6.34L6.50 6.34L6.50 6.34Q6.86 5.91 7.66 5.91L7.66 5.91L7.66 5.91Q9.18 5.91 9.18 7.62L9.18 7.62L9.18 13.72L9.18 13.72Q9.18 14.03 9.20 14.29L9.20 14.29L9.20 14.29Q9.21 14.56 9.25 14.71L9.25 14.71ZM8.26 13.36L8.26 10.29L8.26 10.29Q7.84 10.44 7.58 10.63L7.58 10.63L7.58 10.63Q7.32 10.81 7.19 11.04L7.19 11.04L7.19 11.04Q7.06 11.27 7.01 11.57L7.01 11.57L7.01 11.57Q6.97 11.87 6.97 12.26L6.97 12.26L6.97 13.19L6.97 13.19Q6.97 13.90 7.63 13.90L7.63 13.90L7.63 13.90Q7.84 13.90 8.02 13.78L8.02 13.78L8.02 13.78Q8.19 13.65 8.26 13.36L8.26 13.36ZM12.53 13.17L12.53 7.71L12.53 7.71Q12.53 7.31 12.38 7.15L12.38 7.15L12.38 7.15Q12.24 6.99 11.91 6.99L11.91 6.99L11.91 6.99Q11.68 6.99 11.47 7.13L11.47 7.13L11.47 7.13Q11.27 7.27 11.17 7.55L11.17 7.55L11.17 13.31L11.17 13.31Q11.27 13.59 11.47 13.73L11.47 13.73L11.47 13.73Q11.68 13.87 11.91 13.87L11.91 13.87L11.91 13.87Q12.24 13.87 12.38 13.71L12.38 13.71L12.38 13.71Q12.53 13.55 12.53 13.17L12.53 13.17ZM11.17 16.66L10.21 16.66L10.21 6.05L11.02 6.05L11.02 6.05Q11.06 6.37 11.06 6.71L11.06 6.71L11.06 6.71Q11.21 6.34 11.49 6.15L11.49 6.15L11.49 6.15Q11.77 5.96 12.25 5.96L12.25 5.96L12.25 5.96Q12.85 5.96 13.17 6.36L13.17 6.36L13.17 6.36Q13.48 6.75 13.48 7.59L13.48 7.59L13.48 13.26L13.48 13.26Q13.48 14.14 13.19 14.49L13.19 14.49L13.19 14.49Q12.89 14.84 12.22 14.84L12.22 14.84L12.22 14.84Q11.87 14.84 11.60 14.69L11.60 14.69L11.60 14.69Q11.33 14.55 11.17 14.31L11.17 14.31L11.17 16.66ZM18.02 14.71L16.95 14.71L15.39 10.26L15.39 14.71L14.45 14.71L14.45 3.19L15.39 3.19L15.39 9.79L16.95 6.05L17.98 6.05L16.28 9.88L18.02 14.71ZM21.67 14.71L20.79 14.71L20.79 14.71Q20.73 14.53 20.73 14.20L20.73 14.20L20.73 14.20Q20.38 14.84 19.70 14.84L19.70 14.84L19.70 14.84Q19.11 14.84 18.78 14.52L18.78 14.52L18.78 14.52Q18.45 14.20 18.45 13.47L18.45 13.47L18.45 12.19L18.45 12.19Q18.45 11.56 18.63 11.14L18.63 11.14L18.63 11.14Q18.80 10.71 19.10 10.42L19.10 10.42L19.10 10.42Q19.40 10.12 19.81 9.92L19.81 9.92L19.81 9.92Q20.22 9.72 20.68 9.52L20.68 9.52L20.68 7.63L20.68 7.63Q20.68 7.27 20.54 7.07L20.54 7.07L20.54 7.07Q20.41 6.87 20.05 6.87L20.05 6.87L20.05 6.87Q19.67 6.87 19.54 7.07L19.54 7.07L19.54 7.07Q19.42 7.27 19.42 7.63L19.42 7.63L19.42 9.45L18.56 9.45L18.56 7.62L18.56 7.62Q18.56 6.76 18.92 6.34L18.92 6.34L18.92 6.34Q19.28 5.91 20.08 5.91L20.08 5.91L20.08 5.91Q21.60 5.91 21.60 7.62L21.60 7.62L21.60 13.72L21.60 13.72Q21.60 14.03 21.62 14.29L21.62 14.29L21.62 14.29Q21.63 14.56 21.67 14.71L21.67 14.71ZM20.68 13.36L20.68 10.29L20.68 10.29Q20.26 10.44 20.00 10.63L20.00 10.63L20.00 10.63Q19.74 10.81 19.61 11.04L19.61 11.04L19.61 11.04Q19.47 11.27 19.43 11.57L19.43 11.57L19.43 11.57Q19.39 11.87 19.39 12.26L19.39 12.26L19.39 13.19L19.39 13.19Q19.39 13.90 20.05 13.90L20.05 13.90L20.05 13.90Q20.26 13.90 20.43 13.78L20.43 13.78L20.43 13.78Q20.61 13.65 20.68 13.36L20.68 13.36Z"></path></g><!----><!----></svg>